<?xml version="1.0" standalone="no"?><!DOCTYPE svg PUBLIC "-//W3C//DTD SVG 1.1//EN" "http://www.w3.org/Graphics/SVG/1.1/DTD/svg11.dtd" ><svg xmlns="http://www.w3.org/2000/svg"><metadata></metadata><defs><font id="fonteditor" horiz-adv-x="827"><font-face font-family="TXDDINRegularNumber" font-weight="400" font-stretch="normal" units-per-em="1000" panose-1="0 0 5 0 0 0 0 0 0 0" ascent="1000" descent="-200" x-height="0" bbox="35 -154 767 832" underline-thickness="50" underline-position="-75" unicode-range="U+0024-ffe5" /><missing-glyph horiz-adv-x="600"  /><glyph glyph-name="zero" unicode="0" d="M60 525 Q60 578 86 623 Q112 668 157 694.5 Q202 721 256 721 Q310 721 355 694.5 Q400 668 426.5 623 Q453 578 453 525 L453 188 Q453 134 426.5 89 Q400 44 355 17.5 Q310 -9 256 -9 Q202 -9 157 17.5 Q112 44 86 89 Q60 134 60 188 L60 525 ZM132 197 Q132 163 149 132 Q166 101 194.5 82 Q223 63 256 63 Q290 63 318.5 82 Q347 101 364 132 Q381 163 381 197 L381 515 Q381 549 364 580 Q347 611 318.5 630 Q290 649 256 649 Q223 649 194.5 630 Q166 611 149 580 Q132 549 132 515 L132 197 Z" /><glyph glyph-name="one" unicode="1" d="M330 720 L330 0 L257 0 L257 641 L130 549 L130 628 L257 720 L330 720 Z" /><glyph glyph-name="two" unicode="2" d="M358 458 Q381 495 381 530 Q381 563 364 592 Q347 621 319 638.5 Q291 656 258 656 Q225 656 196.5 638.5 Q168 621 151 592 Q134 563 134 530 L60 530 Q60 583 87 627.5 Q114 672 159.5 698.5 Q205 725 258 725 Q311 725 355.5 698.5 Q400 672 426.5 627.5 Q453 583 453 530 Q453 472 424 428 L148 65 L453 65 L453 0 L60 0 L60 65 L358 458 Z" /><glyph glyph-name="three" unicode="3" d="M364 370 Q407 342 432 296 Q457 250 457 197 Q457 140 429.5 92.5 Q402 45 354.5 17.5 Q307 -10 250 -10 Q193 -10 145 17.5 Q97 45 68.5 93 Q40 141 40 197 L115 197 Q115 160 133.5 128.5 Q152 97 183 78 Q214 59 250 59 Q286 59 316.5 78 Q347 97 364.5 128.5 Q382 160 382 197 Q382 260 345.5 291.5 Q309 323 263.5 332.5 Q218 342 218 338 L218 397 Q218 393 259.5 401.5 Q301 410 334 438.5 Q367 467 367 526 Q367 559 351 588 Q335 617 308 634 Q281 651 248 651 Q204 651 170 621.5 Q136 592 128 549 L52 549 Q58 597 85.5 636 Q113 675 156 697.5 Q199 720 248 720 Q301 720 345.5 694 Q390 668 416 623.5 Q442 579 442 526 Q442 479 421 438 Q400 397 364 370 Z" /><glyph glyph-name="four" unicode="4" d="M455 116 L381 116 L381 0 L308 0 L308 116 L35 116 L35 182 L282 720 L361 720 L115 182 L308 182 L308 403 L381 403 L381 182 L455 182 L455 116 Z" /><glyph glyph-name="five" unicode="5" d="M135 152 Q152 102 180 79 Q208 56 248 56 Q284 56 315.5 76.5 Q347 97 366 137.5 Q385 178 385 236 Q385 325 349 371 Q313 417 256 417 Q226 417 198.5 403.5 Q171 390 151 364 L78 364 L78 716 L439 716 L439 651 L151 651 L151 450 Q171 463 201 473 Q231 483 256 483 Q347 483 402 425 Q457 367 457 236 Q457 108 398.5 49.5 Q340 -9 248 -9 Q178 -9 128 31.5 Q78 72 60 152 L135 152 Z" /><glyph glyph-name="six" unicode="6" d="M257 395 Q312 395 358 368 Q404 341 431.5 294.5 Q459 248 459 193 Q459 138 431.5 91.5 Q404 45 358 18 Q312 -9 257 -9 Q202 -9 156 18 Q110 45 83 91.5 Q56 138 56 193 Q56 210 60 232.5 Q64 255 71 272 L243 716 L321 716 L195 386 Q223 395 257 395 ZM257 63 Q292 63 321.5 81 Q351 99 368 128.5 Q385 158 385 193 Q385 228 368 257.5 Q351 287 321.5 305 Q292 323 257 323 Q220 323 189.5 303 Q159 283 142 250 Q141 248 138.5 240.5 Q136 233 133 219 Q130 205 130 191 Q130 157 147 127.5 Q164 98 193.5 80.5 Q223 63 257 63 Z" /><glyph glyph-name="seven" unicode="7" d="M451 720 L451 654 L200 0 L119 0 L372 654 L138 654 L138 586 L65 586 L65 719 L451 720 Z" /><glyph glyph-name="eight" unicode="8" d="M370 370 Q413 342 438 296 Q463 250 463 197 Q463 140 435.5 92.5 Q408 45 360.5 17.5 Q313 -10 256 -10 Q200 -10 152.5 17.5 Q105 45 77.5 92.5 Q50 140 50 197 Q50 250 74 295 Q98 340 140 369 Q103 395 81.5 436.5 Q60 478 60 526 Q60 579 86 623.5 Q112 668 156.5 694 Q201 720 254 720 Q307 720 351.5 694 Q396 668 422 623.5 Q448 579 448 526 Q448 479 427 438 Q406 397 370 370 ZM254 651 Q221 651 193 634 Q165 617 148.5 588 Q132 559 132 526 Q132 493 148.5 463.5 Q165 434 193 417 Q221 400 254 400 Q287 400 315 417 Q343 434 359.5 463 Q376 492 376 526 Q376 559 359.5 588 Q343 617 315 634 Q287 651 254 651 ZM256 59 Q293 59 324 78 Q355 97 373 128.5 Q391 160 391 197 Q391 234 373 265.5 Q355 297 324 316 Q293 335 256 335 Q220 335 189 316 Q158 297 139.5 265 Q121 233 121 197 Q121 160 139.5 128.5 Q158 97 189 78 Q220 59 256 59 Z" /><glyph glyph-name="nine" unicode="9" d="M257 321 Q202 321 156 348.5 Q110 376 83 422.5 Q56 469 56 524 Q56 579 83 625 Q110 671 156 698 Q202 725 257 725 Q312 725 358 698 Q404 671 431.5 625 Q459 579 459 524 Q459 507 454.5 484.5 Q450 462 443 445 L271 0 L193 0 L319 331 Q292 321 257 321 ZM257 653 Q222 653 193 635.5 Q164 618 147 588 Q130 558 130 524 Q130 489 147 459 Q164 429 193 411 Q222 393 257 393 Q294 393 325 413 Q356 433 372 466 Q373 468 376 476 Q379 484 382 497 Q385 510 385 524 Q385 558 368 587.5 Q351 617 321.5 635 Q292 653 257 653 Z" /><glyph glyph-name="asterisk" unicode="*" d="M319 664 L433 598 L411 561 L298 627 L298 495 L255 495 L255 627 L141 561 L120 598 L234 664 L120 729 L141 766 L255 700 L255 832 L298 832 L298 700 L411 766 L433 729 L319 664 Z" /><glyph glyph-name="comma" unicode="," d="M170 83 L90 83 L90 -97 L170 -30 L170 83 Z" /><glyph glyph-name="period" unicode="." d="M170 0 L90 0 L90 80 L170 80 L170 0 Z" /><glyph glyph-name="slash" unicode="/" d="M171 -154 L90 -154 L504 752 L585 752 L171 -154 Z" /><glyph glyph-name="hyphen" unicode="-" d="M120 303 L455 303 L455 236 L120 236 L120 303 Z" /><glyph glyph-name="dollar" unicode="$" d="M336 1 Q434 8 492 60.5 Q550 113 550 198 Q550 241 534.5 276.5 Q519 312 490 336 Q468 356 440 367 Q412 378 363 386 L333 391 L333 645 Q376 643 408 628 Q440 613 471 586 L519 635 Q478 671 435 689 Q392 707 336 710 L336 798 L277 798 L277 710 Q185 703 132 650.5 Q79 598 79 514 Q79 431 133 383 Q156 363 190 348 Q224 333 261 330 L281 328 L281 67 Q230 69 190 86.5 Q150 104 112 142 L60 91 Q106 45 156.5 23.5 Q207 2 277 -1 L277 -107 L336 -107 L336 1 ZM281 397 Q221 406 184 436 Q153 464 153 517 Q153 572 186.5 606.5 Q220 641 281 645 L281 397 ZM441 283 Q458 269 467 246 Q476 223 476 196 Q476 139 438 105.5 Q400 72 333 67 L333 320 Q339 319 364 315.5 Q389 312 407.5 304 Q426 296 441 283 Z" /><glyph glyph-name="uniFFE5" unicode="&#xffe5;" d="M408 339 L567 339 L567 275 L388 275 L388 217 L567 217 L567 152 L388 152 L388 0 L317 0 L317 152 L139 152 L139 217 L317 217 L317 275 L139 275 L139 339 L298 339 L60 710 L151 710 L354 394 L565 710 L656 710 L408 339 Z" /><glyph glyph-name="plus" unicode="+" d="M473 313 L332 313 L332 161 L261 161 L261 313 L120 313 L120 378 L261 378 L261 516 L332 516 L332 378 L473 378 L473 313 Z" /><glyph glyph-name="equal" unicode="=" d="M473 393 L120 393 L120 329 L473 329 L473 393 ZM473 207 L120 207 L120 143 L473 143 L473 207 Z" /><glyph glyph-name="percent" unicode="%" d="M196 347 Q254 347 292 384 Q330 421 330 481 L330 587 Q330 648 292 685.5 Q254 723 196 723 Q136 723 98 686 Q60 649 60 587 L60 481 Q60 421 98 384 Q136 347 196 347 ZM611 716 L551 716 L215 0 L275 0 L611 716 ZM273 483 Q273 397 196 397 Q117 397 117 483 L117 585 Q117 672 196 672 Q235 672 254 649 Q273 626 273 585 L273 483 ZM631 -7 Q690 -7 728.5 30.5 Q767 68 767 129 L767 234 Q767 295 728.5 332.5 Q690 370 631 370 Q572 370 534 332.5 Q496 295 496 234 L496 129 Q496 68 534 30.5 Q572 -7 631 -7 ZM710 131 Q710 90 690.5 66.5 Q671 43 631 43 Q553 43 553 131 L553 232 Q553 320 631 320 Q671 320 690.5 297 Q710 274 710 232 L710 131 Z" /><glyph glyph-name="ampersand" unicode="&amp;" d="M548 138 Q613 218 615 357 L542 357 Q541 297 532.5 262 Q524 227 502 194 L319 415 L372 450 Q452 505 452 578 Q452 621 432 655.5 Q412 690 376 710 Q340 730 296 730 Q250 730 214 710.5 Q178 691 158 656.5 Q138 622 138 579 Q138 537 157.5 503.5 Q177 470 215 423 Q165 390 133.5 362.5 Q102 335 81 297 Q60 259 60 209 Q60 147 87.5 99.5 Q115 52 166 26 Q217 0 286 0 Q410 0 498 85 L563 6 L658 6 L548 138 ZM296 664 Q332 664 356.5 639.5 Q381 615 381 578 Q381 551 364 531 Q347 511 316 488 L277 463 Q240 508 226.5 532 Q213 556 213 581 Q213 617 236 640.5 Q259 664 296 664 ZM455 137 Q412 98 371 83 Q330 68 285 68 Q219 68 177 107.5 Q135 147 135 211 Q135 249 151.5 277.5 Q168 306 192.5 326.5 Q217 347 258 375 L455 137 Z" /></font>
</defs>
</svg>
